<?xml version="1.0" encoding="utf-8"?>
<!-- Generator: Adobe Illustrator 28.1.0, SVG Export Plug-In . SVG Version: 6.00 Build 0)  -->
<svg version="1.1" id="Layer_1" xmlns="http://www.w3.org/2000/svg" xmlns:xlink="http://www.w3.org/1999/xlink" x="0px" y="0px"
	 viewBox="0 0 1000 1000" style="enable-background:new 0 0 1000 1000;" xml:space="preserve">
<style type="text/css">
	.st0{fill:#FFFFFF;}
</style>
<g>
	<polygon class="st0" points="501.5,185.8 672,281.8 807.1,198.8 503.9,24.5 195.6,200 342.6,283 	"/>
	<polygon class="st0" points="502.4,821.2 329.6,723.7 194.4,806.7 500,982.5 808.3,807 658.9,724 	"/>
	<path class="st0" d="M846.2,229.2l-133.6,79.7l63.3,39.9l3.5,233.2l-61.7-35.1c-8.2,48.7-33.1,91.7-68.6,123l192.4,110.1l75-39.8
		V269.1L846.2,229.2z"/>
	<path class="st0" d="M218.5,662.7V427.5l75.2,43c9.4-48.6,35.3-91.4,71.5-122.3L149.6,225.5l-66.5,38v480l66.5,40.4l137.8-85.5
		L218.5,662.7z"/>
	<path class="st0" d="M484.8,450.5c-3-2.1-6-3.1-9-3.1h-28.1v145.9h15.6v-62.5H479v56.4c0,5.1,1.4,9.5,4.2,13.3
		c3.7,4.8,7.5,7.7,11.5,8.9v-70.8l-7.9-14.8l7.9-15.1v-37.3c0-3.9-0.9-7.8-2.7-11.6C490,455.8,487.6,452.8,484.8,450.5z M479,515.1
		h-15.6V463H479V515.1z"/>
	<path class="st0" d="M574.6,445.6c0-28-28.5-51.1-65.1-53.9c0-8.2,0.1-15.8,0.1-22.5h-7.8H494c0,6.8,0,14.4,0.1,22.6
		c-36.3,3-64.5,25.9-64.5,53.8c0,2.9,0.3,5.7,0.9,8.4c-10.8,9.6-18.7,21.5-22.5,34.6c4.5-10.9,12.9-20.7,24.2-28.6
		c2.2,5.9,5.7,11.4,10.3,16.4v-5.1c-4-3.7-7.1-7.7-9.2-12c16-10.8,37.5-17.9,61.3-19c1.1,98.4,4,228.5,7.3,228.5
		c3.4,0,6.2-130.1,7.3-228.5c24,1.3,45.5,8.7,61.4,19.8c-2,3.8-4.8,7.3-8.2,10.6v5c4-4.5,7.2-9.5,9.3-14.9
		c10.6,7.7,18.6,17.2,22.8,27.7c-3.6-12.5-11-24-21-33.4C574.2,452.2,574.6,448.9,574.6,445.6z M432.7,451c-0.7-2.6-1.1-5.2-1.1-8
		c0-23.5,27.6-42.8,62.9-45.3c0.1,9,0.1,18.5,0.3,28.5C470.3,427.6,448.4,436.9,432.7,451z M509.3,426.2c0.1-10,0.2-19.6,0.2-28.6
		c35.7,2.3,63.5,21.7,63.5,45.3c0,3.1-0.5,6.2-1.4,9.1C556.1,437.6,534,427.9,509.3,426.2z"/>
	<path class="st0" d="M550.8,453.2c-1.8-2-5.1-5.9-5.1-5.9H521c-1.8,0-3.6,1.2-5.3,3.5c-1.6,2.4-2.9,5.5-4,9.2
		c-1,3.9-1.5,7.7-1.5,11.3v127h10.4V463h10.4v135.4h5.2V463h10.4v135.4h10.4V473.1c-0.5-4-1-7.7-2.1-11.2
		C553.8,458.3,552.4,455.4,550.8,453.2z"/>
	<path class="st0" d="M505.4,315.9c-51.8,0-98.8,21.8-132.7,56.7S318,456,318,509.3c0,53.3,20.9,101.6,54.8,136.6
		c33.9,35,80.9,56.7,132.7,56.7h0c51.8,0,98.8-21.7,132.6-56.7c33.9-35,54.8-83.3,54.8-136.6c0-53.3-20.9-101.6-54.8-136.6
		S557.3,315.9,505.4,315.9z M614,624c-27.9,28.8-66.2,46.5-108.6,46.5s-80.7-17.7-108.6-46.5c-27.9-28.8-45.1-68.5-45.1-112.5
		c0-44,17.2-83.8,45.1-112.5c27.9-28.8,66.2-46.5,108.6-46.5s80.7,17.7,108.6,46.5c27.9,28.8,45.1,68.5,45.1,112.5
		C659.2,555.5,641.9,595.2,614,624z"/>
</g>
</svg>
